<svg width="47" height="46" viewBox="0 0 47 46" fill="none" xmlns="http://www.w3.org/2000/svg">
<g clip-path="url(#clip0_2642_1650)">
<path d="M7.29428 7.08554C3.2024 11.1056 0.945883 16.4549 0.945883 22.1432C0.945883 27.8318 3.2023 33.1812 7.29419 37.2013C11.3858 41.2211 16.8262 43.4343 22.6077 43.4343C28.3903 43.4343 33.8316 41.2211 37.9239 37.2013C42.0167 33.1812 44.2737 27.832 44.2737 22.1432C44.2737 16.4549 42.0167 11.1057 37.924 7.08551C33.8315 3.06549 28.3902 0.852133 22.6078 0.852133C16.8263 0.852133 11.3859 3.0655 7.29428 7.08554ZM7.29428 7.08554L7.67851 7.47663L7.29428 7.08554ZM2.905 22.1431C2.905 11.485 11.7349 2.79643 22.6077 2.79643C33.4829 2.79643 42.3145 11.4851 42.3145 22.1431C42.3145 32.8011 33.4828 41.4898 22.6077 41.4898C11.7349 41.4898 2.905 32.8012 2.905 22.1431Z" fill="#787878" stroke="#787878" stroke-width="1.09651"/>
<path d="M21.9321 22.9703L21.932 22.9703C21.744 22.788 21.6368 22.5372 21.6372 22.2738V22.2737L21.6549 12.2193V12.2193C21.6559 11.6744 22.103 11.2495 22.6339 11.2495H22.6339H22.6339H22.6339H22.6339H22.6339H22.634H22.634H22.634H22.634H22.634H22.634H22.6341H22.6341H22.6341H22.6341H22.6341H22.6341H22.6341H22.6342H22.6342H22.6342H22.6342H22.6342H22.6342H22.6343H22.6343H22.6343H22.6343H22.6343H22.6343H22.6343H22.6344H22.6344H22.6344H22.6344H22.6344H22.6344H22.6344H22.6345H22.6345H22.6345H22.6345H22.6345H22.6345H22.6346H22.6346H22.6346H22.6346H22.6346H22.6346H22.6356C23.1672 11.2505 23.6137 11.6772 23.6129 12.2226V12.2228L23.5969 21.2896L32.5357 21.1599C32.5456 21.1597 32.5531 21.1597 32.5536 21.1597C33.0788 21.1597 33.5241 21.5764 33.5322 22.1167L21.9321 22.9703ZM21.9321 22.9703C22.1158 23.1484 22.3617 23.2469 22.6161 23.2469H22.6161H22.6162H22.6162H22.6162H22.6162H22.6163H22.6163H22.6163H22.6163H22.6164H22.6164H22.6164H22.6164H22.6165H22.6165H22.6165H22.6165H22.6166H22.6166H22.6166H22.6166H22.6166H22.6167H22.6167H22.6167H22.6167H22.6168H22.6168H22.6168H22.6168H22.6169H22.6169H22.6169H22.6169H22.617H22.617H22.617H22.617H22.6171H22.6171H22.6171H22.6171H22.6172H22.6172H22.6172H22.6172H22.6173H22.6173H22.6173H22.6173H22.6174H22.6174H22.6174H22.6174H22.6175H22.6175H22.6175H22.6175H22.6176H22.6176H22.6176H22.6176H22.6177H22.6177H22.6177H22.6177H22.6178H22.6178H22.6178H22.6178H22.6179H22.6179H22.6179H22.6179H22.618H22.618H22.618H22.618H22.618H22.6181H22.6181H22.6181H22.6181H22.6182H22.6182H22.6182H22.6182H22.6183H22.6183H22.6183H22.6183H22.6184H22.6184H22.6184H22.6184H22.6185H22.6185H22.6185H22.6185H22.6186H22.6186H22.6186H22.6186H22.6187H22.6187H22.6187H22.6187H22.6188H22.6188H22.6188H22.6188H22.6189H22.6189H22.6189H22.6189H22.619H22.619H22.619H22.619H22.6191H22.6191H22.6191H22.6191H22.6192H22.6192H22.6192H22.6192H22.6193H22.6193H22.6193H22.6193H22.6194H22.6194H22.6194H22.6194H22.6195H22.6195H22.6195H22.6195H22.6196H22.6196H22.6196H22.6196H22.6197H22.6197H22.6197H22.6197H22.6198H22.6198H22.6198H22.6198H22.6199H22.6199H22.6199H22.6199H22.62H22.62H22.62H22.62H22.6201H22.6201H22.6201H22.6201H22.6202H22.6202H22.6202H22.6202H22.6203H22.6203H22.6203H22.6203H22.6204H22.6204H22.6204H22.6204H22.6205H22.6205H22.6205H22.6205H22.6206H22.6206H22.6206H22.6206H22.6207H22.6207H22.6207H22.6207H22.6208H22.6208H22.6208H22.6208H22.6209H22.6209H22.6209H22.621H22.621H22.621H22.621H22.621H22.6211H22.6211H22.6211H22.6212H22.6212H22.6212H22.6212H22.6213H22.6213H22.6213H22.6213H22.6214H22.6214H22.6214H22.6214H22.6215H22.6215H22.6215H22.6215H22.6216H22.6216H22.6216H22.6216H22.6217H22.6217H22.6217H22.6217H22.6218H22.6218H22.6218H22.6218H22.6219H22.6219H22.6219H22.6219H22.622H22.622H22.622H22.622H22.6221H22.6221H22.6221H22.6221H22.6222H22.6222H22.6222H22.6222H22.6223H22.6223H22.6223H22.6223H22.6224H22.6224H22.6224H22.6224H22.6225H22.6225V23.2469M21.9321 22.9703L22.6225 23.2469M22.6225 23.2469L22.6304 23.2468M22.6225 23.2469L22.6304 23.2468M22.6304 23.2468L32.5676 23.1026M22.6304 23.2468L32.5676 23.1026M32.5676 23.1026C33.0995 23.0951 33.5404 22.6623 33.5322 22.1168L32.5676 23.1026ZM21.6219 7.11812C21.6219 7.66372 22.0693 8.08965 22.6009 8.08965C23.1326 8.08965 23.5798 7.66349 23.5798 7.11812V2.69133C23.5798 2.14574 23.1324 1.71981 22.6009 1.71981C22.0693 1.71981 21.6219 2.14574 21.6219 2.69133V7.11812ZM37.8978 23.1157H42.4039C42.9356 23.1157 43.3828 22.6896 43.3828 22.1441C43.3828 21.5986 42.9356 21.1726 42.4039 21.1726H37.8978C37.3661 21.1726 36.9188 21.5986 36.9188 22.1441C36.9188 22.6896 37.366 23.1157 37.8978 23.1157ZM21.6239 41.5979C21.6239 42.1435 22.0713 42.5695 22.6028 42.5695C23.1345 42.5695 23.5818 42.1435 23.5818 41.5979V37.1711C23.5818 36.6256 23.1345 36.1996 22.6028 36.1996C22.0713 36.1996 21.6239 36.6255 21.6239 37.1711V41.5979ZM2.79981 23.1157H7.30614C7.83768 23.1157 8.28507 22.6897 8.28507 22.1441C8.28507 21.5985 7.83768 21.1726 7.30614 21.1726H2.79981C2.26827 21.1726 1.82088 21.5985 1.82088 22.1441C1.82088 22.6897 2.26827 23.1157 2.79981 23.1157Z" fill="#787878" stroke="#787878" stroke-width="1.09651"/>
</g>
<defs>
<clipPath id="clip0_2642_1650">
<rect width="45.8225" height="45.0351" fill="white" transform="translate(0.433594 0.358887)"/>
</clipPath>
</defs>
</svg>
