<svg width="56" height="42" viewBox="0 0 56 42" fill="none" xmlns="http://www.w3.org/2000/svg">
<path d="M27.9861 0.658241V0.658256L27.9901 0.658246L50.212 0.604124C50.2122 0.604124 50.2124 0.604124 50.2126 0.604124C52.8751 0.604523 55.0527 3.02647 55.0527 6.31082V35.6892C55.0527 38.9812 52.8468 41.45 50.2444 41.45H5.75473C3.1524 41.45 0.946484 38.9812 0.946484 35.6892V6.31082C0.946484 3.01885 3.1524 0.55 5.75473 0.55H5.76421H5.76556L27.9861 0.658241ZM48.8403 4.78991C49.008 4.63663 49.0641 4.39607 48.9817 4.18441C48.8992 3.97275 48.6952 3.83354 48.468 3.83402L27.99 3.87731L27.9876 3.87732L8.1073 3.74744C7.88233 3.74597 7.67915 3.88165 7.59431 4.09002C7.50947 4.29838 7.56008 4.5374 7.72209 4.6935L26.679 22.9583L26.7233 23.0099C26.7239 23.0107 26.7246 23.0115 26.7253 23.0123C27.092 23.4471 27.5553 23.5201 27.8047 23.5201C28.035 23.5201 28.4971 23.4686 28.8813 23.0495C28.8854 23.045 28.8895 23.0404 28.8935 23.0358L28.9309 22.9921L28.9745 22.9547L28.9877 22.943L48.8403 4.78991ZM5.10855 6.60808C4.94981 6.4547 4.71475 6.41108 4.51155 6.4973C4.30835 6.58352 4.17638 6.78287 4.17638 7.00361V35.6892C4.17638 36.4156 4.3627 37.0133 4.63156 37.4452C4.76518 37.6599 4.92482 37.8424 5.10142 37.9766C5.26963 38.1044 5.4963 38.2201 5.75473 38.2201H50.2444C50.5029 38.2201 50.7294 38.1044 50.8975 37.977C51.074 37.8433 51.2339 37.6615 51.3686 37.4479C51.6396 37.0182 51.832 36.423 51.8444 35.6986H51.8444V35.6892V7.64227C51.8444 7.42423 51.7156 7.22677 51.5161 7.1389C51.3165 7.05104 51.0839 7.08935 50.9231 7.23657L31.222 25.2706C31.2125 25.2794 31.2032 25.2885 31.1942 25.2979C30.31 26.2307 29.1108 26.7608 27.8264 26.7608H27.7657C26.4594 26.7404 25.2313 26.1791 24.3599 25.2109C24.3514 25.2014 24.3425 25.1922 24.3333 25.1833L5.10855 6.60808Z" fill="white" stroke="white" stroke-width="1.1" stroke-linejoin="round"/>
</svg>
