<svg width="50" height="50" viewBox="0 0 50 50" fill="none" xmlns="http://www.w3.org/2000/svg">
<path d="M39.4409 9.03809H10.5727C8.93211 9.03809 7.35867 9.67863 6.19856 10.8188C5.03846 11.959 4.38672 13.5054 4.38672 15.1178V35.3835C4.38672 36.996 5.03846 38.5424 6.19856 39.6826C7.35867 40.8227 8.93211 41.4633 10.5727 41.4633H39.4409C41.0815 41.4633 42.655 40.8227 43.8151 39.6826C44.9752 38.5424 45.6269 36.996 45.6269 35.3835V15.1178C45.6269 13.5054 44.9752 11.959 43.8151 10.8188C42.655 9.67863 41.0815 9.03809 39.4409 9.03809ZM38.0593 13.0912L25.0068 22.7175L11.9543 13.0912H38.0593ZM39.4409 37.4101H10.5727C10.0259 37.4101 9.50139 37.1966 9.11469 36.8165C8.72798 36.4365 8.51074 35.921 8.51074 35.3835V15.6245L23.7696 26.8719C24.1265 27.135 24.5607 27.2772 25.0068 27.2772C25.453 27.2772 25.8871 27.135 26.244 26.8719L41.5029 15.6245V35.3835C41.5029 35.921 41.2856 36.4365 40.8989 36.8165C40.5122 37.1966 39.9878 37.4101 39.4409 37.4101Z" fill="#787878"/>
</svg>
