<svg width="24" height="24" viewBox="0 0 24 24" fill="none" xmlns="http://www.w3.org/2000/svg">
<path d="M22.7496 8.36565L22.7495 8.36557L12.5644 1.03232C12.4001 0.913788 12.2026 0.85 12 0.85C11.7974 0.85 11.5999 0.913788 11.4356 1.03232L1.2505 8.36557L1.2504 8.36565C1.12659 8.45495 1.02575 8.57235 0.95614 8.70821C0.886534 8.84407 0.850158 8.9945 0.85 9.14715V9.1473V22.1843C0.85 22.4402 0.95165 22.6856 1.13259 22.8666C1.31353 23.0475 1.55893 23.1492 1.81481 23.1492H22.1852C22.4411 23.1492 22.6865 23.0475 22.8674 22.8666C23.0484 22.6856 23.15 22.4402 23.15 22.1843V9.1473V9.14715C23.1498 8.9945 23.1135 8.84407 23.0439 8.70821C22.9743 8.57235 22.8734 8.45495 22.7496 8.36565ZM10.113 21.2195V14.1862H13.887V21.2195H10.113ZM21.2204 21.2195H15.8167V13.2214C15.8167 12.9655 15.715 12.7201 15.5341 12.5392C15.3531 12.3582 15.1077 12.2566 14.8519 12.2566H9.14815C8.89226 12.2566 8.64686 12.3582 8.46592 12.5392C8.28498 12.7201 8.18333 12.9655 8.18333 13.2214V21.2195H2.77963V9.6316L12 3.00095L21.2204 9.6316V21.2195Z" fill="#535353" stroke="#535353" stroke-width="0.3"/>
</svg>
