<svg width="35" height="36" viewBox="0 0 35 36" fill="none" xmlns="http://www.w3.org/2000/svg">
<g clip-path="url(#clip0_2638_860)">
<path d="M11.6676 18C11.6676 14.7785 14.2785 12.1662 17.5 12.1662C20.7215 12.1662 23.3338 14.7785 23.3338 18C23.3338 21.2215 20.7215 23.8338 17.5 23.8338C14.2785 23.8338 11.6676 21.2215 11.6676 18ZM8.51393 18C8.51393 22.963 12.537 26.9861 17.5 26.9861C22.463 26.9861 26.4861 22.963 26.4861 18C26.4861 13.037 22.463 9.01393 17.5 9.01393C12.537 9.01393 8.51393 13.037 8.51393 18ZM24.7417 8.65771C24.7417 9.81684 25.6817 10.7583 26.8423 10.7583C28.0014 10.7583 28.9429 9.81684 28.9429 8.65771C28.9429 7.49859 28.0028 6.55856 26.8423 6.55856C25.6817 6.55856 24.7417 7.49859 24.7417 8.65771ZM10.4293 32.2445C8.72314 32.1668 7.79584 31.8827 7.17952 31.6424C6.36248 31.3243 5.78009 30.9455 5.1666 30.3334C4.55452 29.7213 4.17427 29.1389 3.85763 28.3219C3.61733 27.7056 3.3332 26.7783 3.25545 25.0721C3.17064 23.2274 3.15368 22.6733 3.15368 18C3.15368 13.3267 3.17205 12.774 3.25545 10.9279C3.3332 9.22173 3.61874 8.29584 3.85763 7.67811C4.17569 6.86107 4.55452 6.27868 5.1666 5.66519C5.77868 5.05311 6.36107 4.67286 7.17952 4.35622C7.79584 4.11591 8.72314 3.83178 10.4293 3.75404C12.274 3.66922 12.8281 3.65226 17.5 3.65226C22.1733 3.65226 22.726 3.67064 24.5721 3.75404C26.2783 3.83178 27.2042 4.11733 27.8219 4.35622C28.6389 4.67286 29.2213 5.05311 29.8348 5.66519C30.4469 6.27726 30.8257 6.86107 31.1438 7.67811C31.3841 8.29443 31.6682 9.22173 31.746 10.9279C31.8308 12.774 31.8477 13.3267 31.8477 18C31.8477 22.6719 31.8308 23.226 31.746 25.0721C31.6682 26.7783 31.3827 27.7056 31.1438 28.3219C30.8257 29.1389 30.4469 29.7213 29.8348 30.3334C29.2227 30.9455 28.6389 31.3243 27.8219 31.6424C27.2056 31.8827 26.2783 32.1668 24.5721 32.2445C22.7274 32.3294 22.1733 32.3463 17.5 32.3463C12.8281 32.3463 12.274 32.3294 10.4293 32.2445ZM10.2851 0.606018C8.42205 0.690832 7.14984 0.986268 6.03736 1.41882C4.88671 1.86551 3.91135 2.46486 2.9374 3.4374C1.96486 4.40994 1.36551 5.3853 0.918821 6.53736C0.486268 7.64984 0.190832 8.92205 0.106018 10.7851C0.01979 12.651 0 13.2476 0 18C0 22.7524 0.01979 23.3489 0.106018 25.2149C0.190832 27.0779 0.486268 28.3502 0.918821 29.4626C1.36551 30.6133 1.96345 31.5901 2.9374 32.5626C3.90994 33.5351 4.8853 34.1331 6.03736 34.5812C7.15125 35.0137 8.42205 35.3092 10.2851 35.394C12.1525 35.4788 12.7476 35.5 17.5 35.5C22.2538 35.5 22.8489 35.4802 24.7149 35.394C26.5779 35.3092 27.8502 35.0137 28.9626 34.5812C30.1133 34.1331 31.0886 33.5351 32.0626 32.5626C33.0351 31.5901 33.6331 30.6133 34.0812 29.4626C34.5137 28.3502 34.8106 27.0779 34.894 25.2149C34.9788 23.3475 34.9986 22.7524 34.9986 18C34.9986 13.2476 34.9788 12.651 34.894 10.7851C34.8092 8.92205 34.5137 7.64984 34.0812 6.53736C33.6331 5.38671 33.0351 4.41135 32.0626 3.4374C31.0901 2.46486 30.1133 1.86551 28.9641 1.41882C27.8502 0.986268 26.5779 0.689418 24.7163 0.606018C22.8504 0.521204 22.2538 0.5 17.5014 0.5C12.7476 0.5 12.1525 0.51979 10.2851 0.606018Z" fill="white"/>
</g>
<defs>
<clipPath id="clip0_2638_860">
<rect width="35" height="35" fill="white" transform="translate(0 0.5)"/>
</clipPath>
</defs>
</svg>
