<svg width="35" height="36" viewBox="0 0 35 36" fill="none" xmlns="http://www.w3.org/2000/svg">
<g clip-path="url(#clip0_2638_864)">
<path d="M29.3712 35.1868H5.86106C2.75683 35.1868 0.231445 32.6668 0.231445 29.5688V6.11795C0.231445 3.02 2.75683 0.5 5.86106 0.5H29.3712C32.4745 0.5 34.9999 3.02 34.9999 6.11795V29.5697C34.9999 32.6677 32.4745 35.1868 29.3712 35.1868ZM11.9798 29.1758H11.987V14.2137H7.33196V29.1758H11.9789H11.9798ZM9.65632 12.1703C10.0102 12.1707 10.3608 12.1014 10.6879 11.9661C11.0149 11.8309 11.3121 11.6325 11.5624 11.3822C11.8127 11.132 12.0111 10.8348 12.1463 10.5077C12.2815 10.1806 12.3509 9.83008 12.3504 9.47615C12.349 8.76207 12.0647 8.07764 11.5598 7.57271C11.0548 7.06777 10.3704 6.78347 9.65632 6.78205C8.94187 6.78229 8.25675 7.06621 7.75156 7.5714C7.24637 8.07659 6.96245 8.76171 6.96221 9.47615C6.96245 10.1906 7.24637 10.8757 7.75156 11.3809C8.25675 11.8861 8.94187 12.17 9.65632 12.1703ZM29.3981 29.1767V20.9741C29.3981 16.9437 28.5231 13.8431 23.8205 13.8431C21.5599 13.8431 20.0423 15.0815 19.4186 16.2572H19.3558V14.2137H14.8982V29.1758H19.5452V21.7719C19.5452 19.8191 19.9158 17.93 22.3362 17.93C24.7162 17.93 24.7512 20.1628 24.7512 21.8976V29.1758H29.3981V29.1767Z" fill="white"/>
</g>
<defs>
<clipPath id="clip0_2638_864">
<rect width="35" height="35" fill="white" transform="translate(0 0.5)"/>
</clipPath>
</defs>
</svg>
