<svg width="66" height="66" viewBox="0 0 66 66" fill="none" xmlns="http://www.w3.org/2000/svg">
<path d="M32.7137 8.83594C22.5619 8.83594 14.293 16.9627 14.293 26.9401C14.2917 27.1531 14.3249 27.3649 14.3912 27.5677C14.5591 33.9243 17.359 39.4762 20.6543 44.6339C24.0601 49.9565 28.0021 54.9452 30.5319 60.0385C30.6978 60.3751 30.956 60.6597 31.2773 60.8601C31.5987 61.0605 31.9705 61.1689 32.3511 61.1731C32.7317 61.1772 33.1059 61.077 33.4317 60.8837C33.7575 60.6904 34.0221 60.4117 34.1956 60.0787C36.8482 54.9895 40.9908 49.9927 44.5726 44.6741C48.1462 39.3555 51.2 33.6105 51.2 26.9723C51.2037 26.7167 51.1579 26.4627 51.0649 26.224C50.6719 16.5885 42.6118 8.83594 32.7137 8.83594ZM32.7137 12.8591C40.6551 12.8591 47.041 19.1392 47.041 26.9401C47.0389 27.0846 47.0526 27.2289 47.0819 27.3706C46.9591 32.6328 44.4785 37.5089 41.1464 42.4574C38.3341 46.6455 35.1576 50.9703 32.4108 55.4642C29.8033 50.9905 26.7986 46.6736 24.1297 42.4976C20.8794 37.4164 18.452 32.4196 18.452 26.9683C18.453 26.8428 18.442 26.7175 18.4192 26.5941C18.4985 22.9214 20.04 19.4258 22.7127 16.8577C25.3853 14.2897 28.976 12.854 32.7137 12.8591ZM32.7137 20.9215C29.3489 20.9215 26.5735 23.6451 26.5735 26.9562C26.5735 30.2632 29.3489 32.9909 32.7137 32.9909C36.0827 32.9909 38.854 30.2632 38.854 26.9562C38.854 23.6451 36.0827 20.9215 32.7137 20.9215ZM32.7137 24.9446C33.8681 24.9446 34.7605 25.8217 34.7605 26.9562C34.7605 28.0907 33.8681 28.9678 32.7137 28.9678C32.4439 28.9715 32.176 28.9221 31.9259 28.8224C31.6759 28.7226 31.4487 28.5746 31.2579 28.387C31.067 28.1995 30.9164 27.9762 30.8149 27.7304C30.7134 27.4847 30.6631 27.2214 30.667 26.9562C30.667 25.8217 31.5594 24.9446 32.7137 24.9446Z" fill="#787878"/>
</svg>
