<svg width="24" height="32" viewBox="0 0 24 32" fill="none" xmlns="http://www.w3.org/2000/svg">
<path d="M11.8207 0.199219C5.67002 0.199219 0.660177 5.12296 0.660177 11.168C0.659409 11.297 0.679501 11.4254 0.7197 11.5482C0.821385 15.3995 2.51779 18.7632 4.51429 21.8881C6.57775 25.1129 8.96611 28.1354 10.4988 31.2213C10.5993 31.4252 10.7557 31.5976 10.9504 31.719C11.1451 31.8404 11.3704 31.9061 11.601 31.9086C11.8316 31.9112 12.0583 31.8505 12.2557 31.7333C12.4531 31.6162 12.6134 31.4473 12.7185 31.2456C14.3257 28.1622 16.8355 25.1348 19.0056 21.9124C21.1708 18.6901 23.021 15.2093 23.021 11.1875C23.0232 11.0326 22.9955 10.8787 22.9391 10.7341C22.701 4.89628 17.8177 0.199219 11.8207 0.199219ZM11.8207 2.63672C16.6322 2.63672 20.5012 6.44165 20.5012 11.168C20.4999 11.2555 20.5082 11.343 20.526 11.4288C20.4516 14.617 18.9486 17.5713 16.9298 20.5694C15.2259 23.1068 13.3014 25.7271 11.6372 28.4498C10.0574 25.7393 8.23695 23.1239 6.61991 20.5938C4.65069 17.5152 3.17998 14.4878 3.17998 11.185C3.18057 11.109 3.17393 11.0331 3.16014 10.9583C3.20818 8.73318 4.14211 6.61527 5.76139 5.05937C7.38067 3.50347 9.55616 2.63366 11.8207 2.63672ZM11.8207 7.52146C9.78207 7.52146 8.10055 9.17165 8.10055 11.1777C8.10055 13.1813 9.78207 14.834 11.8207 14.834C13.8619 14.834 15.5409 13.1813 15.5409 11.1777C15.5409 9.17165 13.8619 7.52146 11.8207 7.52146ZM11.8207 9.95896C12.5201 9.95896 13.0608 10.4903 13.0608 11.1777C13.0608 11.8651 12.5201 12.3965 11.8207 12.3965C11.6572 12.3988 11.4949 12.3688 11.3434 12.3084C11.1919 12.2479 11.0543 12.1582 10.9387 12.0446C10.823 11.931 10.7318 11.7957 10.6703 11.6468C10.6088 11.4979 10.5783 11.3384 10.5807 11.1777C10.5807 10.4903 11.1213 9.95896 11.8207 9.95896Z" fill="white"/>
</svg>
