<svg width="65" height="65" viewBox="0 0 65 65" fill="none" xmlns="http://www.w3.org/2000/svg">
<g clip-path="url(#clip0_2642_1640)">
<path d="M35.9036 56.4206C34.1664 55.8737 32.5997 54.8901 31.3589 53.5673L31.1834 53.3825C23.1168 44.7798 17.402 34.3034 14.5848 22.9541L14.0486 20.7881C13.4982 18.5731 13.714 16.2476 14.6614 14.1821C15.6087 12.1167 17.2333 10.4302 19.2761 9.39144L22.17 7.91655C24.6018 6.67715 27.6213 7.62904 28.9009 10.0385L32.2604 16.357C32.7649 17.3113 32.9419 18.3987 32.7644 19.4543C32.587 20.51 32.0649 21.4764 31.2771 22.2073L28.4409 24.8238C28.3812 24.8788 28.3417 24.9518 28.3283 25.0315C28.3149 25.1113 28.3283 25.1934 28.3666 25.2654L35.8462 39.3331C35.8855 39.4051 35.9472 39.4629 36.0222 39.4977C36.0973 39.5325 36.1815 39.5425 36.2622 39.5262L40.0725 38.7524L40.0747 38.7513C41.1381 38.5393 42.246 38.6752 43.2308 39.1383C44.2157 39.6014 45.024 40.3667 45.5335 41.3183L48.8936 47.6407C50.175 50.0507 49.2395 53.0183 46.8082 54.256L43.7866 55.7946C42.584 56.405 41.2687 56.7745 39.9161 56.8819C38.5635 56.9894 37.2 56.8326 35.9036 56.4206ZM24.921 10.9266C24.5666 10.8149 24.1703 10.8358 23.8166 11.0161L20.9232 12.4894C19.5787 13.1731 18.5095 14.2831 17.8859 15.6425C17.2623 17.0019 17.1202 18.5325 17.4823 19.9904L18.0186 22.1564C20.6906 32.9226 26.1112 42.8611 33.7625 51.0224L33.9381 51.2072C36.0571 53.4673 39.4269 54.0792 42.1383 52.6945L45.1599 51.1559C45.3283 51.0701 45.4776 50.9523 45.5993 50.8092C45.7209 50.666 45.8125 50.5004 45.8688 50.3217C45.9252 50.143 45.9451 49.9547 45.9276 49.7677C45.91 49.5807 45.8553 49.3985 45.7665 49.2317L42.4064 42.9093C42.258 42.6324 42.0227 42.4098 41.7359 42.2753C41.4491 42.1408 41.1266 42.1017 40.8173 42.164L37.007 42.9378C36.1723 43.105 35.3024 42.9989 34.529 42.6356C33.7556 42.2724 33.1208 41.6717 32.7208 40.9246L25.2411 26.8569C24.8447 26.1081 24.7058 25.2545 24.8454 24.426C24.985 23.5974 25.3956 22.8391 26.0147 22.2663L28.8505 19.6515C29.0791 19.4388 29.2306 19.1578 29.2822 18.851C29.3337 18.5442 29.2824 18.2282 29.1361 17.9507L25.7744 11.6333C25.6858 11.4664 25.5648 11.318 25.4184 11.1968C25.2719 11.0755 25.1029 10.9837 24.921 10.9266Z" fill="#787878"/>
</g>
<defs>
<clipPath id="clip0_2642_1640">
<rect width="51.3211" height="50.4392" fill="white" transform="translate(15.166 0.605469) rotate(17.4974)"/>
</clipPath>
</defs>
</svg>
