<svg width="35" height="36" viewBox="0 0 35 36" fill="none" xmlns="http://www.w3.org/2000/svg">
<path d="M19.137 24.1533C17.5846 24.0404 16.9354 23.2783 15.7217 22.5444C15.1854 25.367 14.5362 28.1049 13.0402 29.9678C12.5886 30.5041 11.7136 30.2501 11.6854 29.5444C11.4596 25.0283 13.012 21.4436 13.7741 17.6896C12.3346 15.234 13.9434 10.3227 17.0201 11.5364C20.8023 13.0323 13.7459 20.6251 18.4878 21.5848C23.4273 22.5444 25.4596 13.0041 22.383 9.89927C17.9515 5.41137 9.512 9.78637 10.5564 16.2219C10.7539 17.4356 11.7701 18.0001 11.6572 19.2138C11.5725 19.9759 10.8104 20.3993 10.133 20.0888C8.18538 19.1856 7.56442 17.1815 7.64909 14.613C7.81845 9.75814 12.0241 6.34282 16.2297 5.86298C21.5644 5.27024 26.5604 7.81056 27.2378 12.8348C28.0281 18.4517 24.8386 24.5767 19.137 24.1533Z" fill="white"/>
</svg>
