<svg width="28" height="28" viewBox="0 0 28 28" fill="none" xmlns="http://www.w3.org/2000/svg">
<g clip-path="url(#clip0_2613_3416)">
<path d="M10.1613 24.9993C10.7848 24.9993 11.2903 24.4938 11.2903 23.8702C11.2903 23.2467 10.7848 22.7412 10.1613 22.7412C9.53771 22.7412 9.03223 23.2467 9.03223 23.8702C9.03223 24.4938 9.53771 24.9993 10.1613 24.9993Z" stroke="#1F2223" stroke-width="2.25806" stroke-linecap="round" stroke-linejoin="round"/>
<path d="M22.5802 24.9993C23.2037 24.9993 23.7092 24.4938 23.7092 23.8702C23.7092 23.2467 23.2037 22.7412 22.5802 22.7412C21.9567 22.7412 21.4512 23.2467 21.4512 23.8702C21.4512 24.4938 21.9567 24.9993 22.5802 24.9993Z" stroke="#1F2223" stroke-width="2.25806" stroke-linecap="round" stroke-linejoin="round"/>
<path d="M1.12891 1.29004H5.64502L8.67081 16.4077C8.77405 16.9275 9.05684 17.3944 9.46965 17.7268C9.88246 18.0591 10.399 18.2356 10.9289 18.2255H21.903C22.4329 18.2356 22.9494 18.0591 23.3622 17.7268C23.775 17.3944 24.0578 16.9275 24.1611 16.4077L25.9675 6.93518H6.77404" stroke="#1F2223" stroke-width="2.25806" stroke-linecap="round" stroke-linejoin="round"/>
</g>
<defs>
<clipPath id="clip0_2613_3416">
<rect width="27.0967" height="27.0967" fill="white" transform="translate(0 0.161133)"/>
</clipPath>
</defs>
</svg>
