<svg width="35" height="36" viewBox="0 0 35 36" fill="none" xmlns="http://www.w3.org/2000/svg">
<path d="M33.5289 6.26092C33.5291 6.00333 33.461 5.7503 33.3316 5.52759C33.2021 5.30488 33.016 5.12045 32.7921 4.99309C32.5682 4.86573 32.3146 4.79998 32.057 4.80254C31.7994 4.80509 31.5471 4.87587 31.3258 5.00766C30.4722 5.51572 29.5532 5.9048 28.5943 6.16412C27.2249 4.98904 25.4784 4.34602 23.6739 4.35259C21.6943 4.35487 19.7931 5.12637 18.3717 6.50419C16.9503 7.882 16.12 9.75828 16.0561 11.7368C12.1536 11.1145 8.61661 9.0776 6.11968 6.01453C5.96923 5.832 5.7771 5.68833 5.55948 5.59562C5.34186 5.50292 5.10514 5.46391 4.86928 5.48188C4.63355 5.50129 4.4061 5.57783 4.2066 5.70487C4.0071 5.83192 3.84154 6.00565 3.72425 6.21105C3.12273 7.26077 2.77726 8.43757 2.71589 9.64587C2.65452 10.8542 2.87899 12.0599 3.37106 13.1652L3.36822 13.168C3.14705 13.3042 2.96454 13.4949 2.83812 13.7218C2.7117 13.9487 2.64561 14.2043 2.64617 14.464C2.64349 14.6783 2.65634 14.8925 2.68462 15.1049C2.83357 16.9399 3.6468 18.6575 4.97181 19.9356C4.88193 20.1069 4.82707 20.2943 4.81044 20.487C4.79381 20.6797 4.81575 20.8737 4.87497 21.0578C5.45263 22.8576 6.68111 24.3771 8.32 25.3189C6.65494 25.9628 4.85707 26.1873 3.0848 25.9726C2.75678 25.9314 2.42451 26.003 2.1425 26.1755C1.86048 26.348 1.64547 26.6112 1.53272 26.922C1.41997 27.2328 1.41619 27.5726 1.522 27.8858C1.6278 28.199 1.8369 28.467 2.11501 28.6457C5.16307 30.6089 8.71204 31.6526 12.3376 31.6522C16.449 31.6984 20.4605 30.3846 23.7479 27.9151C27.0354 25.4456 29.4146 21.9589 30.5154 17.9973C31.0303 16.2716 31.2932 14.4805 31.2959 12.6796C31.2959 12.5842 31.2959 12.4859 31.2945 12.3876C32.0559 11.5665 32.6457 10.6016 33.0294 9.54956C33.4131 8.49751 33.5829 7.37945 33.5289 6.26092ZM28.7068 10.945C28.4659 11.2298 28.344 11.5965 28.3664 11.9689C28.3806 12.2095 28.3792 12.4516 28.3792 12.6796C28.3762 14.2014 28.1532 15.7148 27.717 17.1728C26.8179 20.5436 24.8137 23.5151 22.0252 25.6116C19.2368 27.708 15.8255 28.808 12.3376 28.7355C11.0847 28.7359 9.83614 28.5886 8.61771 28.2968C10.1714 27.7961 11.6242 27.0242 12.9087 26.0168C13.1453 25.8305 13.3184 25.5756 13.4043 25.287C13.4903 24.9984 13.4848 24.6903 13.3887 24.4049C13.2926 24.1196 13.1105 23.871 12.8675 23.6932C12.6245 23.5154 12.3324 23.4172 12.0313 23.412C10.8192 23.3932 9.66174 22.9045 8.80278 22.0491C9.02069 22.0078 9.23716 21.9565 9.45221 21.8953C9.76722 21.8056 10.0429 21.6125 10.2348 21.3471C10.4268 21.0817 10.5238 20.7595 10.5103 20.4322C10.4968 20.105 10.3736 19.7918 10.1605 19.5431C9.94737 19.2944 9.65675 19.1247 9.33542 19.0612C8.63183 18.9223 7.96976 18.6229 7.40067 18.1865C6.83159 17.75 6.37082 17.1882 6.05417 16.5447C6.31774 16.5807 6.58298 16.603 6.84885 16.6117C7.1647 16.6164 7.47388 16.5206 7.73169 16.3381C7.9895 16.1555 8.18256 15.8957 8.28297 15.5962C8.37919 15.294 8.37424 14.9687 8.26887 14.6695C8.1635 14.3704 7.96346 14.1137 7.69907 13.9385C7.05762 13.5112 6.53218 12.9314 6.1698 12.2512C5.80742 11.5709 5.61943 10.8114 5.62265 10.0406C5.62265 9.9438 5.6255 9.84695 5.6312 9.75153C8.89971 12.7998 13.1392 14.5968 17.6027 14.8258C17.828 14.8347 18.0523 14.7922 18.2588 14.7017C18.4653 14.6111 18.6486 14.4749 18.7947 14.3031C18.9393 14.1297 19.0417 13.9251 19.0939 13.7054C19.146 13.4857 19.1464 13.2569 19.0951 13.0371C19.0117 12.689 18.9692 12.3325 18.9684 11.9746C18.9697 10.7271 19.4659 9.531 20.348 8.64885C21.2302 7.7667 22.4263 7.27053 23.6738 7.26921C24.3157 7.26749 24.9509 7.39886 25.5394 7.65501C26.128 7.91116 26.657 8.28654 27.0932 8.75746C27.2614 8.93841 27.4731 9.07332 27.7081 9.14936C27.9432 9.2254 28.1938 9.24004 28.4361 9.19188C29.0352 9.07529 29.6257 8.91828 30.2035 8.72192C29.8094 9.52833 29.3057 10.2764 28.7068 10.945Z" fill="white"/>
</svg>
