<svg width="47" height="46" fill="none" xmlns="http://www.w3.org/2000/svg"><g clip-path="url(#clip0_2642_1650)" fill="#787878" stroke="#787878" stroke-width="1.097"><path d="M7.294 7.086C3.202 11.106.946 16.455.946 22.143c0 5.689 2.256 11.038 6.348 15.058 4.092 4.02 9.532 6.233 15.314 6.233s11.224-2.213 15.316-6.233c4.093-4.02 6.35-9.369 6.35-15.058 0-5.688-2.257-11.037-6.35-15.057S28.39.852 22.608.852 11.386 3.066 7.294 7.086zm0 0l.385.39-.385-.39zM2.905 22.143c0-10.658 8.83-19.347 19.703-19.347 10.875 0 19.707 8.69 19.707 19.347 0 10.658-8.832 19.347-19.707 19.347-10.873 0-19.703-8.689-19.703-19.347z"/><path d="M21.932 22.97h0a.968.968 0 01-.295-.696v0l.018-10.055v0a.975.975 0 01.979-.97h.002a.975.975 0 01.977.974v0l-.016 9.067 8.939-.13h.018c.525 0 .97.416.978.957l-11.6.853zm0 0c.184.178.43.277.684.277h.006v0m-.69-.277l.69.277m0 0h.008m-.008 0h.008m0 0l9.938-.144m-9.938.144l9.938-.144m0 0a.975.975 0 00.964-.986l-.964.986zM21.622 7.118c0 .546.447.972.979.972a.975.975 0 00.979-.972V2.691a.975.975 0 00-.98-.971.975.975 0 00-.978.971v4.427zm16.276 15.998h4.506a.975.975 0 00.979-.972.975.975 0 00-.98-.971h-4.505a.975.975 0 00-.98.971c0 .546.448.972.98.972zM21.624 41.598c0 .546.447.971.979.971a.975.975 0 00.979-.971V37.17a.975.975 0 00-.98-.971.975.975 0 00-.978.971v4.427zM2.8 23.116h4.506a.975.975 0 00.98-.972.975.975 0 00-.98-.971H2.8a.975.975 0 00-.98.971c0 .546.448.972.98.972z"/></g><defs><clipPath id="clip0_2642_1650"><path fill="#fff" transform="translate(.434 .359)" d="M0 0h45.822v45.035H0z"/></clipPath></defs></svg>