<svg width="56" height="42" fill="none" xmlns="http://www.w3.org/2000/svg"><path d="M27.986.658v0h.004L50.212.604s0 0 0 0c2.663 0 4.84 2.422 4.84 5.707v29.378c0 3.292-2.205 5.761-4.808 5.761H5.754c-2.602 0-4.808-2.469-4.808-5.76V6.31C.946 3.02 3.152.55 5.755.55h.01l22.221.108zM48.84 4.79a.55.55 0 00-.372-.956l-20.478.043h-.002l-19.88-.13a.55.55 0 00-.386.947L26.68 22.957l.044.052.002.002c.367.435.83.508 1.08.508a1.437 1.437 0 001.088-.484l.038-.044.043-.037.014-.012L48.84 4.79zM5.11 6.608a.55.55 0 00-.933.396v28.685c0 .727.187 1.324.456 1.756.133.215.293.397.47.532a1.1 1.1 0 00.653.243h44.49c.258 0 .484-.116.653-.243.176-.134.336-.316.47-.53.272-.429.464-1.024.476-1.748h0V7.642a.55.55 0 00-.92-.405L31.221 25.27a4.618 4.618 0 01-3.396 1.49h-.06a4.671 4.671 0 01-3.433-1.578L5.11 6.608z" fill="#fff" stroke="#fff" stroke-width="1.1" stroke-linejoin="round"/></svg>