<svg width="50" height="50" fill="none" xmlns="http://www.w3.org/2000/svg"><path d="M39.44 9.038H10.574c-1.64 0-3.214.64-4.374 1.78a6.027 6.027 0 00-1.812 4.3v20.265c0 1.613.651 3.16 1.812 4.3a6.242 6.242 0 004.374 1.78H39.44c1.64 0 3.214-.64 4.374-1.78a6.027 6.027 0 001.812-4.3V15.118a6.027 6.027 0 00-1.812-4.3 6.241 6.241 0 00-4.374-1.78zm-1.38 4.053l-13.053 9.627-13.053-9.627H38.06zm1.38 24.32H10.574a2.08 2.08 0 01-1.458-.595 2.009 2.009 0 01-.604-1.433V15.624L23.77 26.872a2.086 2.086 0 002.474 0l15.259-11.248v19.76c0 .537-.217 1.053-.604 1.432a2.08 2.08 0 01-1.458.594z" fill="#787878"/></svg>