<svg width="35" height="36" fill="none" xmlns="http://www.w3.org/2000/svg"><g clip-path="url(#clip0_2638_860)"><path d="M11.668 18a5.833 5.833 0 115.832 5.834A5.833 5.833 0 0111.668 18zm-3.154 0a8.986 8.986 0 008.986 8.986A8.986 8.986 0 0026.486 18 8.986 8.986 0 0017.5 9.014 8.986 8.986 0 008.514 18zm16.228-9.342a2.1 2.1 0 104.202-.001 2.1 2.1 0 00-4.202 0zM10.429 32.245c-1.706-.078-2.633-.362-3.25-.603a5.444 5.444 0 01-2.012-1.309 5.41 5.41 0 01-1.31-2.011c-.24-.616-.524-1.544-.602-3.25-.084-1.845-.101-2.399-.101-7.072s.018-5.226.101-7.072c.078-1.706.364-2.632.603-3.25a5.44 5.44 0 011.309-2.013A5.403 5.403 0 017.18 4.356c.616-.24 1.543-.524 3.25-.602 1.844-.085 2.398-.102 7.07-.102 4.673 0 5.226.019 7.072.102 1.706.078 2.632.363 3.25.602.817.317 1.4.697 2.013 1.31.612.611.99 1.195 1.309 2.012.24.616.524 1.544.602 3.25.085 1.846.102 2.399.102 7.072 0 4.672-.017 5.226-.102 7.072-.078 1.706-.363 2.634-.602 3.25a5.427 5.427 0 01-1.31 2.011 5.433 5.433 0 01-2.012 1.31c-.616.24-1.544.524-3.25.602-1.845.084-2.399.101-7.072.101-4.672 0-5.226-.017-7.07-.101zM10.285.606c-1.863.085-3.135.38-4.248.813a8.587 8.587 0 00-3.1 2.018 8.563 8.563 0 00-2.018 3.1C.486 7.65.19 8.922.106 10.785.02 12.651 0 13.248 0 18s.02 5.349.106 7.215c.085 1.863.38 3.135.813 4.248a8.556 8.556 0 002.018 3.1 8.583 8.583 0 003.1 2.018c1.114.433 2.385.728 4.248.813 1.867.085 2.463.106 7.215.106 4.754 0 5.349-.02 7.215-.106 1.863-.085 3.135-.38 4.248-.813a8.606 8.606 0 003.1-2.018 8.594 8.594 0 002.018-3.1c.433-1.113.73-2.385.813-4.248.085-1.867.105-2.463.105-7.215s-.02-5.349-.105-7.215c-.085-1.863-.38-3.135-.813-4.248a8.606 8.606 0 00-2.018-3.1 8.582 8.582 0 00-3.099-2.018C27.85.986 26.578.689 24.716.606 22.85.521 22.254.5 17.501.5s-5.349.02-7.216.106z" fill="#fff"/></g><defs><clipPath id="clip0_2638_860"><path fill="#fff" transform="translate(0 .5)" d="M0 0h35v35H0z"/></clipPath></defs></svg>