<svg width="35" height="36" fill="none" xmlns="http://www.w3.org/2000/svg"><g clip-path="url(#clip0_2638_864)"><path d="M29.371 35.187H5.861c-3.104 0-5.63-2.52-5.63-5.618V6.118C.231 3.02 2.757.5 5.861.5h23.51C32.475.5 35 3.02 35 6.118V29.57c0 3.098-2.526 5.617-5.629 5.617zM11.98 29.176h.007V14.214H7.332v14.962h4.647zM9.656 12.17a2.691 2.691 0 001.904-4.597 2.7 2.7 0 00-1.904-.791 2.695 2.695 0 000 5.388zm19.742 17.007v-8.203c0-4.03-.875-7.13-5.578-7.13-2.26 0-3.778 1.238-4.401 2.413h-.063v-2.043h-4.458v14.962h4.647v-7.404c0-1.953.37-3.842 2.791-3.842 2.38 0 2.415 2.233 2.415 3.968v7.278h4.647z" fill="#fff"/></g><defs><clipPath id="clip0_2638_864"><path fill="#fff" transform="translate(0 .5)" d="M0 0h35v35H0z"/></clipPath></defs></svg>