<svg width="24" height="32" fill="none" xmlns="http://www.w3.org/2000/svg"><path d="M11.82.2C5.67.2.66 5.122.66 11.167c0 .129.02.257.06.38.101 3.851 1.798 7.215 3.794 10.34 2.064 3.225 4.452 6.247 5.985 9.333.1.204.257.377.451.498a1.256 1.256 0 001.769-.473c1.607-3.084 4.117-6.111 6.287-9.334 2.165-3.222 4.015-6.703 4.015-10.724a1.2 1.2 0 00-.082-.454C22.701 4.896 17.818.2 11.821.2zm0 2.437c4.812 0 8.681 3.805 8.681 8.531-.001.088.007.175.025.26-.074 3.189-1.577 6.143-3.596 9.141-1.704 2.538-3.629 5.158-5.293 7.88-1.58-2.71-3.4-5.325-5.017-7.855-1.97-3.079-3.44-6.106-3.44-9.409 0-.076-.006-.152-.02-.227A8.433 8.433 0 015.761 5.06a8.73 8.73 0 016.06-2.422zm0 4.884c-2.038 0-3.72 1.65-3.72 3.657 0 2.003 1.682 3.656 3.72 3.656 2.042 0 3.72-1.653 3.72-3.656 0-2.006-1.678-3.657-3.72-3.657zm0 2.438c.7 0 1.24.531 1.24 1.219 0 .687-.54 1.218-1.24 1.218a1.242 1.242 0 01-.881-.351 1.199 1.199 0 01-.358-.867c0-.688.54-1.219 1.24-1.219z" fill="#fff"/></svg>