<svg width="66" height="66" fill="none" xmlns="http://www.w3.org/2000/svg"><path d="M32.714 8.836c-10.152 0-18.421 8.127-18.421 18.104a1.98 1.98 0 00.098.628c.168 6.356 2.968 11.908 6.263 17.066 3.406 5.322 7.348 10.311 9.878 15.404.166.337.424.622.745.822a2.073 2.073 0 002.155.024 2.04 2.04 0 00.764-.805c2.652-5.09 6.795-10.086 10.377-15.405 3.573-5.319 6.627-11.063 6.627-17.702a1.982 1.982 0 00-.135-.748c-.393-9.636-8.453-17.388-18.351-17.388zm0 4.023c7.941 0 14.327 6.28 14.327 14.081-.002.145.012.289.04.43-.122 5.263-2.603 10.139-5.935 15.087-2.812 4.188-5.988 8.513-8.735 13.007-2.608-4.474-5.612-8.79-8.281-12.966-3.25-5.082-5.678-10.078-5.678-15.53.001-.125-.01-.25-.033-.374a13.92 13.92 0 014.294-9.736 14.409 14.409 0 0110-3.999zm0 8.063c-3.365 0-6.14 2.723-6.14 6.034 0 3.307 2.775 6.035 6.14 6.035 3.369 0 6.14-2.728 6.14-6.035 0-3.31-2.771-6.034-6.14-6.034zm0 4.023c1.154 0 2.047.877 2.047 2.011 0 1.135-.893 2.012-2.047 2.012a2.052 2.052 0 01-1.456-.581 1.98 1.98 0 01-.591-1.43c0-1.135.892-2.012 2.047-2.012z" fill="#787878"/></svg>