<svg width="65" height="65" fill="none" xmlns="http://www.w3.org/2000/svg"><g clip-path="url(#clip0_2642_1640)"><path d="M35.904 56.42a10.594 10.594 0 01-4.545-2.853l-.176-.184c-8.066-8.603-13.781-19.08-16.598-30.429l-.536-2.166a10.03 10.03 0 01.612-6.606 10.106 10.106 0 014.615-4.79l2.894-1.475c2.432-1.24 5.451-.288 6.73 2.122l3.36 6.318a4.89 4.89 0 01.504 3.097 4.85 4.85 0 01-1.487 2.753l-2.836 2.617a.364.364 0 00-.074.441l7.48 14.068a.385.385 0 00.415.193l3.81-.774h.003a5.086 5.086 0 013.156.386 5.045 5.045 0 012.302 2.18l3.36 6.323a4.85 4.85 0 01-2.085 6.615l-3.021 1.539c-1.203.61-2.518.98-3.87 1.087a10.505 10.505 0 01-4.013-.461zM24.92 10.928a1.46 1.46 0 00-1.104.09l-2.894 1.472a6.652 6.652 0 00-3.037 3.153 6.602 6.602 0 00-.404 4.348l.537 2.166c2.672 10.767 8.092 20.705 15.744 28.866l.175.185c2.12 2.26 5.489 2.872 8.2 1.487l3.022-1.538a1.427 1.427 0 00.709-.834 1.405 1.405 0 00-.102-1.09l-3.36-6.323a1.478 1.478 0 00-1.59-.745l-3.81.774a3.99 3.99 0 01-4.286-2.013l-7.48-14.068a3.833 3.833 0 01-.396-2.431 3.8 3.8 0 011.17-2.16l2.835-2.614a1.413 1.413 0 00.286-1.701l-3.362-6.318a1.45 1.45 0 00-.853-.706z" fill="#787878"/></g><defs><clipPath id="clip0_2642_1640"><path fill="#fff" transform="rotate(17.497 5.616 49.578)" d="M0 0h51.321v50.439H0z"/></clipPath></defs></svg>