<svg width="35" height="36" fill="none" xmlns="http://www.w3.org/2000/svg"><path d="M19.137 24.153c-1.552-.113-2.202-.875-3.415-1.609-.537 2.823-1.186 5.56-2.682 7.424-.451.536-1.326.282-1.355-.424-.225-4.516 1.327-8.1 2.09-11.854-1.44-2.456.168-7.367 3.245-6.154 3.782 1.496-3.274 9.09 1.468 10.049 4.94.96 6.972-8.58 3.895-11.686-4.431-4.488-12.871-.113-11.827 6.323.198 1.214 1.214 1.778 1.101 2.992a1.07 1.07 0 01-1.524.875c-1.948-.903-2.569-2.907-2.484-5.476.17-4.855 4.375-8.27 8.58-8.75 5.335-.593 10.331 1.948 11.009 6.972.79 5.617-2.4 11.742-8.101 11.318z" fill="#fff"/></svg>