<svg width="35" height="36" fill="none" xmlns="http://www.w3.org/2000/svg"><path d="M33.529 6.26a1.457 1.457 0 00-2.203-1.252c-.854.508-1.773.897-2.732 1.156a7.514 7.514 0 00-4.92-1.811 7.63 7.63 0 00-7.618 7.384A16.088 16.088 0 016.12 6.015a1.475 1.475 0 00-1.25-.533 1.456 1.456 0 00-1.146.729 7.693 7.693 0 00-.353 6.954l-.003.003a1.518 1.518 0 00-.722 1.296c-.003.214.01.428.039.64a7.562 7.562 0 002.287 4.832 1.456 1.456 0 00-.097 1.122 7.59 7.59 0 003.445 4.26 10.885 10.885 0 01-5.235.655 1.458 1.458 0 00-.97 2.673 18.875 18.875 0 0010.223 3.006 18.649 18.649 0 0018.177-13.655c.515-1.725.778-3.517.78-5.317v-.292a8.414 8.414 0 002.234-6.127zm-4.822 4.685a1.45 1.45 0 00-.34 1.024c.014.24.012.483.012.71a15.785 15.785 0 01-.662 4.494 15.582 15.582 0 01-15.38 11.563 15.95 15.95 0 01-3.72-.44 13.825 13.825 0 004.292-2.28 1.458 1.458 0 00-.878-2.604 4.678 4.678 0 01-3.228-1.363 7.47 7.47 0 00.65-.154 1.459 1.459 0 00-.118-2.834 4.664 4.664 0 01-3.28-2.516c.263.036.528.058.794.067a1.49 1.49 0 001.434-1.016 1.458 1.458 0 00-.584-1.658 4.66 4.66 0 01-2.068-4.186 18.978 18.978 0 0011.972 5.074 1.488 1.488 0 001.192-.523 1.46 1.46 0 00.3-1.266 4.604 4.604 0 01-.127-1.062 4.71 4.71 0 014.706-4.706 4.643 4.643 0 013.42 1.488 1.448 1.448 0 001.342.435c.6-.117 1.19-.274 1.767-.47a9.745 9.745 0 01-1.496 2.223z" fill="#fff"/></svg>