<?xml version="1.0" encoding="utf-8"?><svg viewBox="0 0 800 800" xmlns="http://www.w3.org/2000/svg" xmlns:xlink="http://www.w3.org/1999/xlink"><style>:root>svg{display:none}:root>svg:target{display:block}</style><svg viewBox="0 0 21 22" id="arrow-icon" xmlns="http://www.w3.org/2000/svg"><path d="m10.963 5.156 5.78 5.886-5.886 5.78"/></svg><svg viewBox="0 0 47 46" id="clock-icon" xmlns="http://www.w3.org/2000/svg"><g clip-path="url(#ba)"><path d="M7.294 7.086C3.202 11.106.946 16.455.946 22.143c0 5.689 2.256 11.038 6.348 15.058 4.092 4.02 9.532 6.233 15.314 6.233s11.224-2.213 15.316-6.233c4.093-4.02 6.35-9.369 6.35-15.058 0-5.688-2.257-11.037-6.35-15.057S28.39.852 22.608.852 11.386 3.066 7.294 7.086Zm0 0 .385.39-.385-.39ZM2.905 22.143c0-10.658 8.83-19.347 19.703-19.347 10.875 0 19.707 8.69 19.707 19.347 0 10.658-8.832 19.347-19.707 19.347-10.873 0-19.703-8.689-19.703-19.347Z"/><path d="M21.932 22.97a.968.968 0 0 1-.295-.696l.018-10.055a.975.975 0 0 1 .979-.97h.002a.975.975 0 0 1 .977.974l-.016 9.067 8.939-.13h.018c.525 0 .97.416.978.957l-11.6.853Zm0 0c.184.178.43.277.684.277h.006m-.69-.277.69.277m0 0h.008m-.008 0h.008m0 0 9.938-.144m-9.938.144 9.938-.144m0 0a.975.975 0 0 0 .964-.986l-.964.986ZM21.622 7.118c0 .546.447.972.979.972a.975.975 0 0 0 .979-.972V2.691a.975.975 0 0 0-.98-.971.975.975 0 0 0-.978.971v4.427Zm16.276 15.998h4.506a.975.975 0 0 0 .979-.972.975.975 0 0 0-.98-.971h-4.505a.975.975 0 0 0-.98.971c0 .546.448.972.98.972ZM21.624 41.598c0 .546.447.971.979.971a.975.975 0 0 0 .979-.971V37.17a.975.975 0 0 0-.98-.971.975.975 0 0 0-.978.971v4.427ZM2.8 23.116h4.506a.975.975 0 0 0 .98-.972.975.975 0 0 0-.98-.971H2.8a.975.975 0 0 0-.98.971c0 .546.448.972.98.972Z"/></g><defs><clipPath id="ba"><path transform="translate(.434 .359)" d="M0 0h45.822v45.035H0z"/></clipPath></defs></svg><svg viewBox="0 0 18 18" id="close-icon" xmlns="http://www.w3.org/2000/svg"><g clip-path="url(#ca)"><path d="m10.055 9.005 7.716-7.716A.75.75 0 1 0 16.71.23L8.995 7.945 1.28.23A.75.75 0 0 0 .22 1.29l7.716 7.716L.22 16.721a.75.75 0 0 0 1.06 1.06l7.716-7.716 7.716 7.716a.75.75 0 0 0 1.06-1.06l-7.716-7.716Z"/></g><defs><clipPath id="ca"><path d="M0 0h18v18H0z"/></clipPath></defs></svg><svg viewBox="0 0 18 18" id="cros" xmlns="http://www.w3.org/2000/svg"><g clip-path="url(#da)"><path d="m10.055 9.005 7.716-7.716A.75.75 0 1 0 16.71.23L8.995 7.945 1.28.23A.75.75 0 0 0 .22 1.29l7.716 7.716L.22 16.721a.75.75 0 0 0 1.06 1.06l7.716-7.716 7.716 7.716a.75.75 0 0 0 1.06-1.06l-7.716-7.716Z"/></g><defs><clipPath id="da"><path d="M0 0h18v18H0z"/></clipPath></defs></svg><svg viewBox="0 0 56 42" id="email-icon" xmlns="http://www.w3.org/2000/svg"><path d="M27.986.658h.004L50.212.604c2.663 0 4.84 2.422 4.84 5.707v29.378c0 3.292-2.205 5.761-4.808 5.761H5.754c-2.602 0-4.808-2.469-4.808-5.76V6.31C.946 3.02 3.152.55 5.755.55h.01l22.221.108ZM48.84 4.79a.55.55 0 0 0-.372-.956l-20.478.043h-.002l-19.88-.13a.55.55 0 0 0-.386.947L26.68 22.957l.044.052.002.002c.367.435.83.508 1.08.508a1.437 1.437 0 0 0 1.088-.484l.038-.044.043-.037.014-.012L48.84 4.79ZM5.11 6.608a.55.55 0 0 0-.933.396v28.685c0 .727.187 1.324.456 1.756.133.215.293.397.47.532.168.127.394.243.653.243h44.49c.258 0 .484-.116.653-.243.176-.134.336-.316.47-.53.272-.429.464-1.024.476-1.748V7.642a.55.55 0 0 0-.92-.405L31.221 25.27a4.618 4.618 0 0 1-3.396 1.49h-.06a4.671 4.671 0 0 1-3.433-1.578L5.11 6.608Z"/></svg><svg viewBox="0 0 24 24" id="home-Icon" xmlns="http://www.w3.org/2000/svg"><path d="M22.75 8.366 12.564 1.032a.965.965 0 0 0-1.128 0L1.25 8.366a.965.965 0 0 0-.401.781v13.037a.965.965 0 0 0 .965.965h20.37a.965.965 0 0 0 .965-.965V9.147a.965.965 0 0 0-.4-.781ZM10.113 21.22v-7.034h3.774v7.034h-3.774Zm11.107 0h-5.403V13.22a.965.965 0 0 0-.965-.964H9.148a.965.965 0 0 0-.965.964v7.998H2.78V9.633L12 3l9.22 6.63V21.22Z"/></svg><svg viewBox="0 0 35 36" id="instagram-icon" xmlns="http://www.w3.org/2000/svg"><g clip-path="url(#ga)"><path d="M11.668 18a5.833 5.833 0 1 1 5.832 5.834A5.833 5.833 0 0 1 11.668 18Zm-3.154 0a8.986 8.986 0 0 0 8.986 8.986A8.986 8.986 0 0 0 26.486 18 8.986 8.986 0 0 0 17.5 9.014 8.986 8.986 0 0 0 8.514 18Zm16.228-9.342a2.1 2.1 0 1 0 4.202-.001 2.1 2.1 0 0 0-4.202 0ZM10.429 32.245c-1.706-.078-2.633-.362-3.25-.603a5.444 5.444 0 0 1-2.012-1.309 5.41 5.41 0 0 1-1.31-2.011c-.24-.616-.524-1.544-.602-3.25-.084-1.845-.101-2.399-.101-7.072s.018-5.226.101-7.072c.078-1.706.364-2.632.603-3.25.318-.817.697-1.4 1.309-2.013A5.403 5.403 0 0 1 7.18 4.356c.616-.24 1.543-.524 3.25-.602 1.844-.085 2.398-.102 7.07-.102 4.673 0 5.226.019 7.072.102 1.706.078 2.632.363 3.25.602.817.317 1.4.697 2.013 1.31.612.611.99 1.195 1.309 2.012.24.616.524 1.544.602 3.25.085 1.846.102 2.399.102 7.072 0 4.672-.017 5.226-.102 7.072-.078 1.706-.363 2.634-.602 3.25a5.427 5.427 0 0 1-1.31 2.011 5.433 5.433 0 0 1-2.012 1.31c-.616.24-1.544.524-3.25.602-1.845.084-2.399.101-7.072.101-4.672 0-5.226-.017-7.07-.101ZM10.285.606c-1.863.085-3.135.38-4.248.813a8.587 8.587 0 0 0-3.1 2.018 8.563 8.563 0 0 0-2.018 3.1C.486 7.65.19 8.922.106 10.785.02 12.651 0 13.248 0 18s.02 5.349.106 7.215c.085 1.863.38 3.135.813 4.248a8.556 8.556 0 0 0 2.018 3.1 8.583 8.583 0 0 0 3.1 2.018c1.114.433 2.385.728 4.248.813 1.867.085 2.463.106 7.215.106 4.754 0 5.349-.02 7.215-.106 1.863-.085 3.135-.38 4.248-.813a8.606 8.606 0 0 0 3.1-2.018 8.594 8.594 0 0 0 2.018-3.1c.433-1.113.73-2.385.813-4.248.085-1.867.105-2.463.105-7.215s-.02-5.349-.105-7.215c-.085-1.863-.38-3.135-.813-4.248a8.606 8.606 0 0 0-2.018-3.1 8.582 8.582 0 0 0-3.099-2.018C27.85.986 26.578.689 24.716.606 22.85.521 22.254.5 17.501.5s-5.349.02-7.216.106Z"/></g><defs><clipPath id="ga"><path transform="translate(0 .5)" d="M0 0h35v35H0z"/></clipPath></defs></svg><svg viewBox="0 0 35 36" id="linkedin-icon" xmlns="http://www.w3.org/2000/svg"><g clip-path="url(#ha)"><path d="M29.371 35.187H5.861c-3.104 0-5.63-2.52-5.63-5.618V6.118C.231 3.02 2.757.5 5.861.5h23.51C32.475.5 35 3.02 35 6.118V29.57c0 3.098-2.526 5.617-5.629 5.617ZM11.98 29.176h.007V14.214H7.332v14.962h4.647ZM9.656 12.17a2.691 2.691 0 0 0 1.904-4.597 2.7 2.7 0 0 0-1.904-.791 2.695 2.695 0 0 0 0 5.388Zm19.742 17.007v-8.203c0-4.03-.875-7.13-5.578-7.13-2.26 0-3.778 1.238-4.401 2.413h-.063v-2.043h-4.458v14.962h4.647v-7.404c0-1.953.37-3.842 2.791-3.842 2.38 0 2.415 2.233 2.415 3.968v7.278h4.647Z"/></g><defs><clipPath id="ha"><path transform="translate(0 .5)" d="M0 0h35v35H0z"/></clipPath></defs></svg><svg viewBox="0 0 24 32" id="location-icon" xmlns="http://www.w3.org/2000/svg"><path d="M11.82.2C5.67.2.66 5.122.66 11.167c0 .129.02.257.06.38.101 3.851 1.798 7.215 3.794 10.34 2.064 3.225 4.452 6.247 5.985 9.333.1.204.257.377.451.498a1.256 1.256 0 0 0 1.769-.473c1.607-3.084 4.117-6.111 6.287-9.334 2.165-3.222 4.015-6.703 4.015-10.724a1.2 1.2 0 0 0-.082-.454C22.701 4.896 17.818.2 11.821.2Zm0 2.437c4.812 0 8.681 3.805 8.681 8.531-.001.088.007.175.025.26-.074 3.189-1.577 6.143-3.596 9.141-1.704 2.538-3.629 5.158-5.293 7.88-1.58-2.71-3.4-5.325-5.017-7.855-1.97-3.079-3.44-6.106-3.44-9.409 0-.076-.006-.152-.02-.227A8.433 8.433 0 0 1 5.761 5.06a8.73 8.73 0 0 1 6.06-2.422Zm0 4.884c-2.038 0-3.72 1.65-3.72 3.657 0 2.003 1.682 3.656 3.72 3.656 2.042 0 3.72-1.653 3.72-3.656 0-2.006-1.678-3.657-3.72-3.657Zm0 2.438c.7 0 1.24.531 1.24 1.219 0 .687-.54 1.218-1.24 1.218a1.242 1.242 0 0 1-.881-.351 1.199 1.199 0 0 1-.358-.867c0-.688.54-1.219 1.24-1.219Z"/></svg><svg viewBox="0 0 32 32" id="phone-icon" xmlns="http://www.w3.org/2000/svg"><path d="M30.637 23.152a5.188 5.188 0 0 0-.654-1.825l.013.024a.753.753 0 0 0-.521-.353l-.004-.001-8.969-1.424a.752.752 0 0 0-.648.209 6.179 6.179 0 0 0-1.496 2.45l-.012.044c-4.015-1.64-7.139-4.765-8.742-8.674l-.038-.105a6.197 6.197 0 0 0 2.493-1.509.749.749 0 0 0 .21-.652l.001.004-1.423-8.97a.752.752 0 0 0-.353-.524l-.003-.002a5.026 5.026 0 0 0-1.723-.626l-.03-.004a3.881 3.881 0 0 0-1.132-.109h.009a6.393 6.393 0 0 0-6.348 6.351v.002c.015 12.761 10.355 23.102 23.115 23.116h.001a6.391 6.391 0 0 0 6.354-6.349v-.002l.001-.084c0-.35-.037-.691-.106-1.021l.006.032zm-6.254 5.924C12.45 29.062 2.781 19.392 2.767 7.461V7.46a4.888 4.888 0 0 1 4.855-4.854h.048c.275 0 .544.03.802.086l-.025-.005c.367.06.695.162 1.002.301l-.025-.01 1.301 8.201a4.783 4.783 0 0 1-2.257 1.051l-.029.004a.75.75 0 0 0-.577.989l-.002-.005c1.773 5.072 5.696 8.994 10.646 10.73l.121.037a.747.747 0 0 0 .628-.064l-.003.002a.75.75 0 0 0 .357-.511l.001-.005a4.818 4.818 0 0 1 1.061-2.296l-.006.007 8.201 1.303c.133.296.238.641.297 1.001l.003.024c.045.212.071.455.071.704l-.001.073v-.004a4.886 4.886 0 0 1-4.852 4.857h-.002z"/></svg><svg viewBox="0 0 35 36" id="pinterest-icon" xmlns="http://www.w3.org/2000/svg"><path d="M19.137 24.153c-1.552-.113-2.202-.875-3.415-1.609-.537 2.823-1.186 5.56-2.682 7.424-.451.536-1.326.282-1.355-.424-.225-4.516 1.327-8.1 2.09-11.854-1.44-2.456.168-7.367 3.245-6.154 3.782 1.496-3.274 9.09 1.468 10.049 4.94.96 6.972-8.58 3.895-11.686-4.431-4.488-12.871-.113-11.827 6.323.198 1.214 1.214 1.778 1.101 2.992a1.07 1.07 0 0 1-1.524.875c-1.948-.903-2.569-2.907-2.484-5.476.17-4.855 4.375-8.27 8.58-8.75 5.335-.593 10.331 1.948 11.009 6.972.79 5.617-2.4 11.742-8.101 11.318Z"/></svg><svg viewBox="0 0 23 23" id="search-icon" xmlns="http://www.w3.org/2000/svg"><path d="M9.533 15.892a6.859 6.859 0 1 0 0-13.717 6.859 6.859 0 0 0 0 13.717ZM14.392 14.06l5.864 5.865"/></svg><svg viewBox="0 0 28 28" id="shopping_cart-icon" xmlns="http://www.w3.org/2000/svg"><g clip-path="url(#ma)"><path d="M10.161 25a1.13 1.13 0 1 0 0-2.259 1.13 1.13 0 0 0 0 2.258ZM22.58 25a1.13 1.13 0 1 0 0-2.259 1.13 1.13 0 0 0 0 2.258ZM1.129 1.29h4.516l3.026 15.118a2.258 2.258 0 0 0 2.258 1.817h10.974a2.258 2.258 0 0 0 2.258-1.817l1.806-9.473H6.774"/></g><defs><clipPath id="ma"><path transform="translate(0 .161)" d="M0 0h27.097v27.097H0z"/></clipPath></defs></svg><svg viewBox="0 0 16 16" id="star-icon" xmlns="http://www.w3.org/2000/svg"><g clip-path="url(#na)"><path d="M.023 6.164a.469.469 0 0 1 .378-.319l4.96-.72L7.58.63a.469.469 0 0 1 .84 0l2.219 4.495 4.96.72a.469.469 0 0 1 .26.8l-3.59 3.498.848 4.94a.469.469 0 0 1-.68.495L8 13.245l-4.436 2.333a.469.469 0 0 1-.68-.495l.847-4.94-3.59-3.498a.469.469 0 0 1-.118-.48Z"/></g><defs><clipPath id="na"><path transform="matrix(-1 0 0 1 16 0)" d="M0 0h16v16H0z"/></clipPath></defs></svg><svg viewBox="0 0 35 36" id="twitter-icon" xmlns="http://www.w3.org/2000/svg"><path d="M33.529 6.26a1.457 1.457 0 0 0-2.203-1.252c-.854.508-1.773.897-2.732 1.156a7.514 7.514 0 0 0-4.92-1.811 7.63 7.63 0 0 0-7.618 7.384A16.088 16.088 0 0 1 6.12 6.015a1.475 1.475 0 0 0-1.25-.533 1.456 1.456 0 0 0-1.146.729 7.693 7.693 0 0 0-.353 6.954l-.003.003a1.518 1.518 0 0 0-.722 1.296c-.003.214.01.428.039.64a7.562 7.562 0 0 0 2.287 4.832 1.456 1.456 0 0 0-.097 1.122 7.59 7.59 0 0 0 3.445 4.26 10.885 10.885 0 0 1-5.235.655 1.458 1.458 0 0 0-.97 2.673 18.875 18.875 0 0 0 10.223 3.006 18.649 18.649 0 0 0 18.177-13.655c.515-1.725.778-3.517.78-5.317v-.292a8.414 8.414 0 0 0 2.234-6.127Zm-4.822 4.685a1.45 1.45 0 0 0-.34 1.024c.014.24.012.483.012.71a15.785 15.785 0 0 1-.662 4.494 15.582 15.582 0 0 1-15.38 11.563 15.95 15.95 0 0 1-3.72-.44 13.825 13.825 0 0 0 4.292-2.28 1.458 1.458 0 0 0-.878-2.604 4.678 4.678 0 0 1-3.228-1.363c.218-.041.434-.093.65-.154a1.459 1.459 0 0 0-.118-2.834 4.664 4.664 0 0 1-3.28-2.516c.263.036.528.058.794.067a1.49 1.49 0 0 0 1.434-1.016 1.458 1.458 0 0 0-.584-1.658 4.66 4.66 0 0 1-2.068-4.186 18.978 18.978 0 0 0 11.972 5.074 1.488 1.488 0 0 0 1.192-.523 1.46 1.46 0 0 0 .3-1.266 4.604 4.604 0 0 1-.127-1.062 4.71 4.71 0 0 1 4.706-4.706 4.643 4.643 0 0 1 3.42 1.488 1.448 1.448 0 0 0 1.342.435c.6-.117 1.19-.274 1.767-.47a9.745 9.745 0 0 1-1.496 2.223Z"/></svg></svg>