<?xml version="1.0" encoding="utf-8"?><svg viewBox="0 0 66 66" xmlns="http://www.w3.org/2000/svg" xmlns:xlink="http://www.w3.org/1999/xlink"><style>:root>svg{display:none}:root>svg:target{display:block}</style><svg viewBox="0 0 21 22" id="arrow-icon" xmlns="http://www.w3.org/2000/svg"><path d="m10.963 5.156 5.78 5.886-5.886 5.78"/></svg><svg viewBox="0 0 47 46" id="clock-icon" xmlns="http://www.w3.org/2000/svg"><g clip-path="url(#ba)"><path d="M7.294 7.086C3.202 11.106.946 16.455.946 22.143c0 5.689 2.256 11.038 6.348 15.058 4.092 4.02 9.532 6.233 15.314 6.233s11.224-2.213 15.316-6.233c4.093-4.02 6.35-9.369 6.35-15.058 0-5.688-2.257-11.037-6.35-15.057S28.39.852 22.608.852 11.386 3.066 7.294 7.086Zm0 0 .385.39-.385-.39ZM2.905 22.143c0-10.658 8.83-19.347 19.703-19.347 10.875 0 19.707 8.69 19.707 19.347 0 10.658-8.832 19.347-19.707 19.347-10.873 0-19.703-8.689-19.703-19.347Z"/><path d="M21.932 22.97a.968.968 0 0 1-.295-.696l.018-10.055a.975.975 0 0 1 .979-.97h.002a.975.975 0 0 1 .977.974l-.016 9.067 8.939-.13h.018c.525 0 .97.416.978.957l-11.6.853Zm0 0c.184.178.43.277.684.277h.006m-.69-.277.69.277m0 0h.008m-.008 0h.008m0 0 9.938-.144m-9.938.144 9.938-.144m0 0a.975.975 0 0 0 .964-.986l-.964.986ZM21.622 7.118c0 .546.447.972.979.972a.975.975 0 0 0 .979-.972V2.691a.975.975 0 0 0-.98-.971.975.975 0 0 0-.978.971v4.427Zm16.276 15.998h4.506a.975.975 0 0 0 .979-.972.975.975 0 0 0-.98-.971h-4.505a.975.975 0 0 0-.98.971c0 .546.448.972.98.972ZM21.624 41.598c0 .546.447.971.979.971a.975.975 0 0 0 .979-.971V37.17a.975.975 0 0 0-.98-.971.975.975 0 0 0-.978.971v4.427ZM2.8 23.116h4.506a.975.975 0 0 0 .98-.972.975.975 0 0 0-.98-.971H2.8a.975.975 0 0 0-.98.971c0 .546.448.972.98.972Z"/></g><defs><clipPath id="ba"><path transform="translate(.434 .359)" d="M0 0h45.822v45.035H0z"/></clipPath></defs></svg><svg viewBox="0 0 18 18" id="close-icon" xmlns="http://www.w3.org/2000/svg"><g clip-path="url(#ca)"><path d="m10.055 9.005 7.716-7.716A.75.75 0 1 0 16.71.23L8.995 7.945 1.28.23A.75.75 0 0 0 .22 1.29l7.716 7.716L.22 16.721a.75.75 0 0 0 1.06 1.06l7.716-7.716 7.716 7.716a.75.75 0 0 0 1.06-1.06l-7.716-7.716Z"/></g><defs><clipPath id="ca"><path d="M0 0h18v18H0z"/></clipPath></defs></svg><svg viewBox="0 0 18 18" id="cros" xmlns="http://www.w3.org/2000/svg"><g clip-path="url(#da)"><path d="m10.055 9.005 7.716-7.716A.75.75 0 1 0 16.71.23L8.995 7.945 1.28.23A.75.75 0 0 0 .22 1.29l7.716 7.716L.22 16.721a.75.75 0 0 0 1.06 1.06l7.716-7.716 7.716 7.716a.75.75 0 0 0 1.06-1.06l-7.716-7.716Z"/></g><defs><clipPath id="da"><path d="M0 0h18v18H0z"/></clipPath></defs></svg><svg viewBox="0 0 50 50" id="email-icon" xmlns="http://www.w3.org/2000/svg"><path d="M39.44 9.038H10.574c-1.64 0-3.214.64-4.374 1.78a6.027 6.027 0 0 0-1.812 4.3v20.265c0 1.613.651 3.16 1.812 4.3a6.242 6.242 0 0 0 4.374 1.78H39.44c1.64 0 3.214-.64 4.374-1.78a6.027 6.027 0 0 0 1.812-4.3V15.118a6.027 6.027 0 0 0-1.812-4.3 6.241 6.241 0 0 0-4.374-1.78Zm-1.38 4.053-13.053 9.627-13.053-9.627H38.06Zm1.38 24.32H10.574a2.08 2.08 0 0 1-1.458-.595 2.009 2.009 0 0 1-.604-1.433V15.624L23.77 26.872a2.086 2.086 0 0 0 2.474 0l15.259-11.248v19.76c0 .537-.217 1.053-.604 1.432a2.08 2.08 0 0 1-1.458.594Z"/></svg><svg viewBox="0 0 24 24" id="home-Icon" xmlns="http://www.w3.org/2000/svg"><path d="M22.75 8.366 12.564 1.032a.965.965 0 0 0-1.128 0L1.25 8.366a.965.965 0 0 0-.401.781v13.037a.965.965 0 0 0 .965.965h20.37a.965.965 0 0 0 .965-.965V9.147a.965.965 0 0 0-.4-.781ZM10.113 21.22v-7.034h3.774v7.034h-3.774Zm11.107 0h-5.403V13.22a.965.965 0 0 0-.965-.964H9.148a.965.965 0 0 0-.965.964v7.998H2.78V9.633L12 3l9.22 6.63V21.22Z"/></svg><svg viewBox="0 0 35 36" id="instagram-icon" xmlns="http://www.w3.org/2000/svg"><g clip-path="url(#ga)"><path d="M11.668 18a5.833 5.833 0 1 1 5.832 5.834A5.833 5.833 0 0 1 11.668 18Zm-3.154 0a8.986 8.986 0 0 0 8.986 8.986A8.986 8.986 0 0 0 26.486 18 8.986 8.986 0 0 0 17.5 9.014 8.986 8.986 0 0 0 8.514 18Zm16.228-9.342a2.1 2.1 0 1 0 4.202-.001 2.1 2.1 0 0 0-4.202 0ZM10.429 32.245c-1.706-.078-2.633-.362-3.25-.603a5.444 5.444 0 0 1-2.012-1.309 5.41 5.41 0 0 1-1.31-2.011c-.24-.616-.524-1.544-.602-3.25-.084-1.845-.101-2.399-.101-7.072s.018-5.226.101-7.072c.078-1.706.364-2.632.603-3.25.318-.817.697-1.4 1.309-2.013A5.403 5.403 0 0 1 7.18 4.356c.616-.24 1.543-.524 3.25-.602 1.844-.085 2.398-.102 7.07-.102 4.673 0 5.226.019 7.072.102 1.706.078 2.632.363 3.25.602.817.317 1.4.697 2.013 1.31.612.611.99 1.195 1.309 2.012.24.616.524 1.544.602 3.25.085 1.846.102 2.399.102 7.072 0 4.672-.017 5.226-.102 7.072-.078 1.706-.363 2.634-.602 3.25a5.427 5.427 0 0 1-1.31 2.011 5.433 5.433 0 0 1-2.012 1.31c-.616.24-1.544.524-3.25.602-1.845.084-2.399.101-7.072.101-4.672 0-5.226-.017-7.07-.101ZM10.285.606c-1.863.085-3.135.38-4.248.813a8.587 8.587 0 0 0-3.1 2.018 8.563 8.563 0 0 0-2.018 3.1C.486 7.65.19 8.922.106 10.785.02 12.651 0 13.248 0 18s.02 5.349.106 7.215c.085 1.863.38 3.135.813 4.248a8.556 8.556 0 0 0 2.018 3.1 8.583 8.583 0 0 0 3.1 2.018c1.114.433 2.385.728 4.248.813 1.867.085 2.463.106 7.215.106 4.754 0 5.349-.02 7.215-.106 1.863-.085 3.135-.38 4.248-.813a8.606 8.606 0 0 0 3.1-2.018 8.594 8.594 0 0 0 2.018-3.1c.433-1.113.73-2.385.813-4.248.085-1.867.105-2.463.105-7.215s-.02-5.349-.105-7.215c-.085-1.863-.38-3.135-.813-4.248a8.606 8.606 0 0 0-2.018-3.1 8.582 8.582 0 0 0-3.099-2.018C27.85.986 26.578.689 24.716.606 22.85.521 22.254.5 17.501.5s-5.349.02-7.216.106Z"/></g><defs><clipPath id="ga"><path transform="translate(0 .5)" d="M0 0h35v35H0z"/></clipPath></defs></svg><svg viewBox="0 0 35 36" id="linkedin-icon" xmlns="http://www.w3.org/2000/svg"><g clip-path="url(#ha)"><path d="M29.371 35.187H5.861c-3.104 0-5.63-2.52-5.63-5.618V6.118C.231 3.02 2.757.5 5.861.5h23.51C32.475.5 35 3.02 35 6.118V29.57c0 3.098-2.526 5.617-5.629 5.617ZM11.98 29.176h.007V14.214H7.332v14.962h4.647ZM9.656 12.17a2.691 2.691 0 0 0 1.904-4.597 2.7 2.7 0 0 0-1.904-.791 2.695 2.695 0 0 0 0 5.388Zm19.742 17.007v-8.203c0-4.03-.875-7.13-5.578-7.13-2.26 0-3.778 1.238-4.401 2.413h-.063v-2.043h-4.458v14.962h4.647v-7.404c0-1.953.37-3.842 2.791-3.842 2.38 0 2.415 2.233 2.415 3.968v7.278h4.647Z"/></g><defs><clipPath id="ha"><path transform="translate(0 .5)" d="M0 0h35v35H0z"/></clipPath></defs></svg><svg viewBox="0 0 66 66" id="location-icon" xmlns="http://www.w3.org/2000/svg"><path d="M32.714 8.836c-10.152 0-18.421 8.127-18.421 18.104a1.98 1.98 0 0 0 .098.628c.168 6.356 2.968 11.908 6.263 17.066 3.406 5.322 7.348 10.311 9.878 15.404.166.337.424.622.745.822a2.073 2.073 0 0 0 2.155.024c.325-.194.59-.472.764-.805 2.652-5.09 6.795-10.086 10.377-15.405 3.573-5.319 6.627-11.063 6.627-17.702a1.982 1.982 0 0 0-.135-.748c-.393-9.636-8.453-17.388-18.351-17.388Zm0 4.023c7.941 0 14.327 6.28 14.327 14.081-.002.145.012.289.04.43-.122 5.263-2.603 10.139-5.935 15.087-2.812 4.188-5.988 8.513-8.735 13.007-2.608-4.474-5.612-8.79-8.281-12.966-3.25-5.082-5.678-10.078-5.678-15.53.001-.125-.01-.25-.033-.374a13.92 13.92 0 0 1 4.294-9.736 14.409 14.409 0 0 1 10-3.999Zm0 8.063c-3.365 0-6.14 2.723-6.14 6.034 0 3.307 2.775 6.035 6.14 6.035 3.369 0 6.14-2.728 6.14-6.035 0-3.31-2.771-6.034-6.14-6.034Zm0 4.023c1.154 0 2.047.877 2.047 2.011 0 1.135-.893 2.012-2.047 2.012a2.052 2.052 0 0 1-1.456-.581 1.98 1.98 0 0 1-.591-1.43c0-1.135.892-2.012 2.047-2.012Z"/></svg><svg viewBox="0 0 65 65" id="phone-icon" xmlns="http://www.w3.org/2000/svg"><g clip-path="url(#ja)"><path d="M35.904 56.42a10.594 10.594 0 0 1-4.545-2.853l-.176-.184c-8.066-8.603-13.781-19.08-16.598-30.429l-.536-2.166a10.03 10.03 0 0 1 .612-6.606 10.106 10.106 0 0 1 4.615-4.79l2.894-1.475c2.432-1.24 5.451-.288 6.73 2.122l3.36 6.318a4.89 4.89 0 0 1 .504 3.097 4.85 4.85 0 0 1-1.487 2.753l-2.836 2.617a.364.364 0 0 0-.074.441l7.48 14.068a.385.385 0 0 0 .415.193l3.81-.774h.003a5.086 5.086 0 0 1 3.156.386 5.045 5.045 0 0 1 2.302 2.18l3.36 6.323a4.85 4.85 0 0 1-2.085 6.615l-3.021 1.539c-1.203.61-2.518.98-3.87 1.087a10.505 10.505 0 0 1-4.013-.461ZM24.92 10.928a1.46 1.46 0 0 0-1.104.09l-2.894 1.472a6.652 6.652 0 0 0-3.037 3.153 6.602 6.602 0 0 0-.404 4.348l.537 2.166c2.672 10.767 8.092 20.705 15.744 28.866l.175.185c2.12 2.26 5.489 2.872 8.2 1.487l3.022-1.538a1.427 1.427 0 0 0 .709-.834 1.405 1.405 0 0 0-.102-1.09l-3.36-6.323a1.478 1.478 0 0 0-1.59-.745l-3.81.774a3.99 3.99 0 0 1-4.286-2.013l-7.48-14.068a3.833 3.833 0 0 1-.396-2.431c.14-.829.55-1.587 1.17-2.16l2.835-2.614a1.413 1.413 0 0 0 .286-1.701l-3.362-6.318a1.45 1.45 0 0 0-.853-.706Z"/></g><defs><clipPath id="ja"><path transform="rotate(17.497 5.616 49.578)" d="M0 0h51.321v50.439H0z"/></clipPath></defs></svg><svg viewBox="0 0 35 36" id="pinterest-icon" xmlns="http://www.w3.org/2000/svg"><path d="M19.137 24.153c-1.552-.113-2.202-.875-3.415-1.609-.537 2.823-1.186 5.56-2.682 7.424-.451.536-1.326.282-1.355-.424-.225-4.516 1.327-8.1 2.09-11.854-1.44-2.456.168-7.367 3.245-6.154 3.782 1.496-3.274 9.09 1.468 10.049 4.94.96 6.972-8.58 3.895-11.686-4.431-4.488-12.871-.113-11.827 6.323.198 1.214 1.214 1.778 1.101 2.992a1.07 1.07 0 0 1-1.524.875c-1.948-.903-2.569-2.907-2.484-5.476.17-4.855 4.375-8.27 8.58-8.75 5.335-.593 10.331 1.948 11.009 6.972.79 5.617-2.4 11.742-8.101 11.318Z"/></svg><svg viewBox="0 0 23 23" id="search-icon" xmlns="http://www.w3.org/2000/svg"><path d="M9.533 15.892a6.859 6.859 0 1 0 0-13.717 6.859 6.859 0 0 0 0 13.717ZM14.392 14.06l5.864 5.865"/></svg><svg viewBox="0 0 28 28" id="shopping_cart-icon" xmlns="http://www.w3.org/2000/svg"><g clip-path="url(#ma)"><path d="M10.161 25a1.13 1.13 0 1 0 0-2.259 1.13 1.13 0 0 0 0 2.258ZM22.58 25a1.13 1.13 0 1 0 0-2.259 1.13 1.13 0 0 0 0 2.258ZM1.129 1.29h4.516l3.026 15.118a2.258 2.258 0 0 0 2.258 1.817h10.974a2.258 2.258 0 0 0 2.258-1.817l1.806-9.473H6.774"/></g><defs><clipPath id="ma"><path transform="translate(0 .161)" d="M0 0h27.097v27.097H0z"/></clipPath></defs></svg><svg viewBox="0 0 16 16" id="star-icon" xmlns="http://www.w3.org/2000/svg"><g clip-path="url(#na)"><path d="M.023 6.164a.469.469 0 0 1 .378-.319l4.96-.72L7.58.63a.469.469 0 0 1 .84 0l2.219 4.495 4.96.72a.469.469 0 0 1 .26.8l-3.59 3.498.848 4.94a.469.469 0 0 1-.68.495L8 13.245l-4.436 2.333a.469.469 0 0 1-.68-.495l.847-4.94-3.59-3.498a.469.469 0 0 1-.118-.48Z"/></g><defs><clipPath id="na"><path transform="matrix(-1 0 0 1 16 0)" d="M0 0h16v16H0z"/></clipPath></defs></svg><svg viewBox="0 0 35 36" id="twitter-icon" xmlns="http://www.w3.org/2000/svg"><path d="M33.529 6.26a1.457 1.457 0 0 0-2.203-1.252c-.854.508-1.773.897-2.732 1.156a7.514 7.514 0 0 0-4.92-1.811 7.63 7.63 0 0 0-7.618 7.384A16.088 16.088 0 0 1 6.12 6.015a1.475 1.475 0 0 0-1.25-.533 1.456 1.456 0 0 0-1.146.729 7.693 7.693 0 0 0-.353 6.954l-.003.003a1.518 1.518 0 0 0-.722 1.296c-.003.214.01.428.039.64a7.562 7.562 0 0 0 2.287 4.832 1.456 1.456 0 0 0-.097 1.122 7.59 7.59 0 0 0 3.445 4.26 10.885 10.885 0 0 1-5.235.655 1.458 1.458 0 0 0-.97 2.673 18.875 18.875 0 0 0 10.223 3.006 18.649 18.649 0 0 0 18.177-13.655c.515-1.725.778-3.517.78-5.317v-.292a8.414 8.414 0 0 0 2.234-6.127Zm-4.822 4.685a1.45 1.45 0 0 0-.34 1.024c.014.24.012.483.012.71a15.785 15.785 0 0 1-.662 4.494 15.582 15.582 0 0 1-15.38 11.563 15.95 15.95 0 0 1-3.72-.44 13.825 13.825 0 0 0 4.292-2.28 1.458 1.458 0 0 0-.878-2.604 4.678 4.678 0 0 1-3.228-1.363c.218-.041.434-.093.65-.154a1.459 1.459 0 0 0-.118-2.834 4.664 4.664 0 0 1-3.28-2.516c.263.036.528.058.794.067a1.49 1.49 0 0 0 1.434-1.016 1.458 1.458 0 0 0-.584-1.658 4.66 4.66 0 0 1-2.068-4.186 18.978 18.978 0 0 0 11.972 5.074 1.488 1.488 0 0 0 1.192-.523 1.46 1.46 0 0 0 .3-1.266 4.604 4.604 0 0 1-.127-1.062 4.71 4.71 0 0 1 4.706-4.706 4.643 4.643 0 0 1 3.42 1.488 1.448 1.448 0 0 0 1.342.435c.6-.117 1.19-.274 1.767-.47a9.745 9.745 0 0 1-1.496 2.223Z"/></svg></svg>